<svg xmlns="http://www.w3.org/2000/svg" viewBox="0 0 569.53 89.93">
   <defs>
      <style>.cls-1{fill:#fff;stroke:#010101;}.cls-1,.cls-2{stroke-miterlimit:10;}.cls-2{fill:#fafafa;stroke:#fedf6e;}</style>
   </defs>
   <g id="Livello_2" data-name="Livello 2">
      <g id="stanze">
         <rect id="1i30" class="cls-1" x="0.5" y="13.25" width="27.39" height="70.88"/>
         <rect id="1i03" class="cls-1" x="27.89" y="40.03" width="34.04" height="44.12"/>
         <rect id="1i02" class="cls-1" x="27.89" y="13.25" width="34.04" height="26.78"/>
         <rect id="1i04" class="cls-1" x="61.92" y="13.25" width="121.24" height="70.88"/>
         <rect id="1i05" class="cls-1" x="183.17" y="69.26" width="95.7" height="14.87"/>
         <polygon id="1i13" class="cls-1" points="247.56 13.25 247.56 28.54 236.22 28.54 236.22 40.07 183.16 40.07 183.16 13.25 247.56 13.25"/>
         <rect id="1i12" class="cls-1" x="183.17" y="40.07" width="46" height="29.38"/>
         <rect id="1i09"  class="cls-1" x="229.16" y="50.36" width="49.71" height="19.1"/>
         <polygon  id="1i08" class="cls-1" points="276.08 40.17 276.08 50.36 229.16 50.36 229.16 40.17 236.22 40.17 236.22 28.54 247.56 28.54 247.56 40.17 276.08 40.17"/>
         <rect id="1i10" class="cls-1" x="247.56" y="13.25" width="15.03" height="26.83"/>
         <rect id="1i11"  class="cls-1" x="262.59" y="13.25" width="13.83" height="26.83"/>
         <polygon  id="1i15" class="cls-1" points="405.64 69.32 405.64 84.13 307.52 84.13 307.52 69.32 376.31 69.32 376.31 63.58 388.58 63.58 388.58 69.32 405.64 69.32"/>
         <rect id="1i23" class="cls-1" x="356.23" y="13.25" width="47.4" height="26.54"/>
         <rect id="1i17" class="cls-1" x="356.23" y="39.78" width="17.47" height="11.41"/>
         <rect id="1i21" class="cls-1" x="373.7" y="39.78" width="30.05" height="11.4"/>
         <rect id="1i16" class="cls-1" x="356.23" y="51.2" width="20.08" height="17.87"/>
         <rect id="1i18" class="cls-1" x="376.31" y="51.19" width="12.28" height="12.13"/>
         <rect id="1i19" class="cls-1" x="388.59" y="51.19" width="17.06" height="17.88"/>
         <polygon id="1i14" class="cls-1" points="356.23 39.78 356.23 69.07 307.52 69.07 307.52 50.16 314.51 50.16 314.51 39.78 356.23 39.78"/>
         <rect id="1i22" class="cls-1" x="307.13" y="13.25" width="49.1" height="26.54"/>
         <rect id="1i32" class="cls-1" x="276.08" y="13.25" width="31.05" height="26.83"/>
         <polygon id="1i06" class="cls-1" points="314.51 40.07 314.51 50.23 307.52 50.23 307.52 84.13 278.87 84.13 278.87 50.23 276.08 50.23 276.08 40.07 314.51 40.07"/>
         <polygon id="1i20" class="cls-1" points="495.5 47.89 495.5 84.13 405.81 84.13 405.81 51.32 403.75 51.32 403.75 13.25 491.26 13.25 491.26 36.92 495.46 36.92 495.46 47.89 495.5 47.89"/>
         <rect id="1i34" class="cls-1" x="525.12" y="47.78" width="29.96" height="36.35"/>
         <rect id="1i33" class="cls-1" x="525.35" y="13.25" width="29.74" height="34.54"/>
         <rect id="1i36" class="cls-1" x="490.48" y="13.25" width="18.81" height="23.59"/>
         <rect id="1i27" class="cls-1" x="508.52" y="13.25" width="16.83" height="23.59"/>
         <rect id="1i24" class="cls-1" x="495.49" y="36.84" width="29.85" height="10.94"/>
         <rect id="1i25" class="cls-1" x="495.49" y="47.78" width="29.63" height="36.35"/>
         <rect id="1i37" class="cls-1" x="401.83" y="0.56" width="153.26" height="10.94"/>
         <rect id="1i38" class="cls-1" x="341.74" y="4.08" width="51.01" height="7.42"/>
         <rect id="1i39" class="cls-1" x="0.5" y="0.5" width="294.11" height="11"/>
         <rect id="1i40" class="cls-1" x="556.56" y="47.03" width="12.48" height="32.38"/>
      </g>
      <g id="porte">
         <path class="cls-2" d="M29.81,40.59c0-.38-.2-5,0-5,1.79,0,5.82,2.36,5.82,5"/>
         <path class="cls-2" d="M28.43,75.26c-.38,0-5,.19-5,0-.05-1.78,2.36-5.81,5-5.81"/>
         <path class="cls-2" d="M64.83,14c0-.39-.19-5,0-5,1.78,0,5.81,2.36,5.81,5"/>
         <path class="cls-2" d="M140.55,14c0-.39-.19-5,0-5,1.78,0,5.81,2.36,5.81,5"/>
         <path class="cls-2" d="M182.67,70.39a28.94,28.94,0,0,1,3.74,0c0,1.37-1.78,4.47-3.74,4.47,4.32,0,8.29,5.51,8.21,8,0,.29-7.58,0-8.21,0"/>
         <path class="cls-2" d="M228.53,41.81c.45,0,5.86-.23,5.87,0,.06,2.11-2.78,6.86-5.87,6.86"/>
         <path class="cls-2" d="M245.37,28c0,.46.22,5.86,0,5.87-2.11.06-6.87-2.78-6.87-5.87"/>
         <path class="cls-2" d="M261,40.62c0-.45.23-5.86,0-5.87-2.1-.06-6.86,2.78-6.86,5.87"/>
         <path class="cls-2" d="M274.3,40.62c0-.45.22-5.86,0-5.87-2.11-.06-6.86,2.78-6.86,5.87"/>
         <path class="cls-2" d="M249.23,49.6c0,.45-.22,5.86,0,5.86,2.11.06,6.86-2.78,6.86-5.86"/>
         <path class="cls-2" d="M275.38,48.61c.45,0,5.86.22,5.87,0,.06-2.11-2.78-6.86-5.87-6.86"/>
         <path class="cls-2" d="M278.31,70.44a29.1,29.1,0,0,1,3.75,0c0,1.37-1.78,4.47-3.75,4.47,4.33,0,8.3,5.52,8.22,8,0,.29-7.58,0-8.22,0"/>
         <path class="cls-2" d="M308,70.44a29.1,29.1,0,0,0-3.75,0c0,1.37,1.78,4.47,3.75,4.47-4.32,0-8.3,5.52-8.22,8,0,.29,7.59,0,8.22,0"/>
         <path class="cls-2" d="M315.09,41.82c-.45,0-5.86-.22-5.87,0-.06,2.11,2.78,6.86,5.87,6.86"/>
         <path class="cls-2" d="M305.65,40.62c0-.45.23-5.86,0-5.87-2.1-.06-6.86,2.78-6.86,5.87"/>
         <path class="cls-2" d="M455.88,14.22a29.1,29.1,0,0,0,0-3.75c-1.37,0-4.47,1.78-4.47,3.75,0-4.32-5.51-8.3-8-8.22-.29,0,0,7.59,0,8.22"/>
         <path class="cls-2" d="M376.7,68.19a33.74,33.74,0,0,1-3.5,0c0-1.1,1.66-3.56,3.5-3.56"/>
         <path class="cls-2" d="M377.91,64.07a27,27,0,0,1,0-3.5c1.25,0,4.09,1.66,4.09,3.5"/>
         <path class="cls-2" d="M388,68.19a33.72,33.72,0,0,0,3.5,0c0-1.1-1.66-3.56-3.5-3.56"/>
         <path class="cls-2" d="M358.07,51.81a29,29,0,0,1,0-3.5c1.26,0,4.1,1.66,4.1,3.5"/>
         <path class="cls-2" d="M404.35,41.38a27,27,0,0,0-3.5,0c0,1.26,1.66,4.09,3.5,4.09"/>
         <path class="cls-2" d="M362.88,13.65c0-.45-.23-5.85,0-5.86,2.1-.06,6.86,2.78,6.86,5.86"/>
         <path class="cls-2" d="M510.05,37.37c0-.45-.22-5.86,0-5.87,2.11-.06,6.86,2.78,6.86,5.87"/>
         <path class="cls-2" d="M507,37.37c0-.45.23-5.86,0-5.87-2.1-.06-6.86,2.78-6.86,5.87"/>
         <path class="cls-2" d="M500.17,47.2c0,.45-.23,5.86,0,5.87,2.11.06,6.86-2.78,6.86-5.87"/>
         <path class="cls-2" d="M498.57,83.57c0,.45-.22,5.86,0,5.86,2.11.06,6.86-2.78,6.86-5.86"/>
         <path class="cls-2" d="M524.66,45.7c.45,0,5.85.23,5.86,0,.06-2.1-2.78-6.86-5.86-6.86"/>
         <path class="cls-2" d="M554.58,70.33a28.94,28.94,0,0,0,3.74,0c0-1.37-1.77-4.47-3.74-4.47,4.32,0,8.3-5.52,8.21-8,0-.29-7.58,0-8.21,0"/>
      </g>
      <g id="nomi-stanze">
         <text x='10' y='10' class="text-map" id="1i04-text">nome</text>
         <text x='10' y='10' class="text-map" id="1i38-text">nome</text>
         <text x='10' y='10' class="text-map" id="1i37-text">nome</text>
         <text x='10' y='10' class="text-map" id="1i25-text">nome</text>
         <text x='10' y='10' class="text-map" id="1i24-text">nome</text>
         <text x='10' y='10' class="text-map" id="1i27-text">nome</text>
         <text x='10' y='10' class="text-map" id="1i36-text">nome</text>
         <text x='10' y='10' class="text-map" id="1i33-text">nome</text>
         <text x='10' y='10' class="text-map" id="1i34-text">nome</text>
         <text x='10' y='10' class="text-map" id="1i32-text">nome</text>
         <text x='10' y='10' class="text-map" id="1i22-text">nome</text>
         <text x='10' y='10' class="text-map" id="1i19-text">nome</text>
         <text x='10' y='10' class="text-map" id="1i18-text">nome</text>
         <text x='10' y='10' class="text-map" id="1i16-text">nome</text>
         <text x='10' y='10' class="text-map" id="1i21-text">nome</text>
         <text x='10' y='10' class="text-map" id="1i30-text">nome</text>
         <text x='10' y='20' class="text-map" id="1i03-text">nome</text>
         <text x='10' y='30' class="text-map" id="1i02-text">nome</text>
         <text x='10' y='40' class="text-map" id="1i05-text">nome</text>
         <text x='10' y='50' class="text-map" id="1i13-text">nome</text>
         <text x='10' y='60' class="text-map" id="1i40-text">nome</text>
         <text x='10' y='70' class="text-map" id="1i39-text">nome</text>
         <text x='10' y='70' class="text-map" id="1i20-text">nome</text>
         <text x='10' y='70' class="text-map" id="1i12-text">nome</text>
         <text x='10' y='70' class="text-map" id="1i06-text">nome</text>
         <text x='10' y='70' class="text-map" id="1i14-text">nome</text>
         <text x='10' y='70' class="text-map" id="1i15-text">nome</text>
         <text x='10' y='70' class="text-map" id="1i08-text">nome</text>
         <text x='10' y='70' class="text-map" id="1i09-text">nome</text>
         <text x='10' y='70' class="text-map" id="1i10-text">nome</text>
         <text x='10' y='70' class="text-map" id="1i11-text">nome</text>
         <text x='10' y='70' class="text-map" id="1i23-text">nome</text>
         <text x='10' y='70' class="text-map" id="1i17-text">nome</text>
      <g>
      
   </g>
</svg>